<?xml version="1.0" encoding="UTF-8"?>
<svg xmlns="http://www.w3.org/2000/svg" width="1995" height="788" viewBox="0 0 1995 788" version="1.1" shape-rendering="geometricPrecision">
  <g>
    <path fill="#ffffff" transform="matrix(2.774 0 0 2.779 -18.494 35.65)" d="M 89.447 107 C 88.66 107.694 83.669 108.007 82 108.609 C 79.035 109.677 82.603 108.549 81 109.22 C 79.684 109.771 78.287 110.108 77 110.742 C 76.304 111.085 75.673 111.798 75 112.207 C 71.741 114.187 69.177 117.583 67.578 121 C 67.466 121.239 66.66 122.698 66.567 123 C 65.589 126.172 66.589 128.657 68.623 131 C 69.156 131.613 70.115 132.212 70.431 133 C 70.794 133.909 70.684 135.047 70.941 136 C 71.226 137.057 72.035 137.979 72.418 139 C 73.27 141.27 74.495 143.345 77 144.204 C 80.224 145.31 83.239 143.604 86 142.192 C 87.351 141.502 88.573 140.079 89.625 139 C 91 137.59 92.575 136.369 93.989 135 C 95.668 133.374 97.236 131.634 98.909 130 C 100.051 128.885 101.527 127.46 103 126.767 C 103.593 126.487 104.072 126.546 104.454 126 C 105.702 124.211 106.664 121.961 107.598 120 C 108.1 118.948 108.861 118.016 109.412 117 C 110.484 115.021 111.517 113.013 112.511 111 C 113.786 108.419 117.071 103.609 117.524 101 C 118.028 98.093 117.21 93.927 116.713 91 C 116.545 90.01 116.545 88.984 116.367 88 C 116.059 86.296 115.254 84.638 114.749 83 C 114.269 81.44 114.799 82.562 114.351 81 C 113.948 79.595 113.107 78.341 112.596 77 C 109.752 69.519 105.4 62.635 100 56.704 C 95.967 52.274 91.311 47.972 86 45.17 C 85.311 44.806 84.696 44.143 84 43.809 C 82.436 43.058 79.712 41.9 78 42.006 C 73.868 42.263 72.787 45.543 72.367 49 C 72.245 50.001 71.937 50.993 71.876 52 C 71.728 54.474 72.719 60.655 73.584 63 C 73.963 64.028 74.77 64.889 75.048 66 C 75.457 67.639 74.294 68.544 73.729 70 C 72.783 72.438 72.521 75.406 72.578 78 C 72.622 79.968 72.931 82.175 73.73 84 C 74.035 84.694 74.662 85.272 74.983 86 C 75.341 86.811 74.438 89.803 74.485 91 C 74.617 94.389 75.921 97.541 78.303 100 C 80.267 102.028 82.626 103.805 85.17 105 C 86.609 105.676 88.2 105.944 89.447 107 Z
M 130.907 117 C 131.458 116.524 133.296 116.882 134 116.841 C 136.563 116.692 138.685 116.065 141 115.031 C 143.742 113.805 146.13 112.046 148 109.658 C 148.449 109.085 148.53 108.311 149 107.813 C 149.919 106.84 151.006 106.306 152 105.426 C 154.616 103.111 157.006 100.174 158.458 97 C 158.9 96.035 159.189 94.943 159.649 94 C 160.264 92.741 162.129 91.915 163 90.816 C 164.424 89.02 166.33 87.044 167.371 85 C 169.156 81.494 166.967 85.26 168 83.647 C 168.706 82.544 171.616 76.809 170 75.84 C 164.727 72.678 151.976 77.835 147 80.582 C 146.627 80.789 146.367 81.163 146 81.381 C 139.149 85.445 133.175 90.339 127.586 96 C 126.378 97.224 124.85 98.56 123.897 100 C 123.03 101.309 122.967 102.554 122.47 104 C 122.122 105.013 121.628 105.985 121.271 107 C 120.89 108.085 120.214 109.005 119.721 110 C 119.242 110.967 118.938 112.028 118.486 113 C 117.262 115.635 115.637 118.306 114 120.727 L 111.073 125 C 110.285 126.121 108.08 127.826 107.757 129 C 107.492 129.965 107.496 131.023 107.253 132 C 106.909 133.381 106.318 134.691 105.837 136 C 105.245 137.613 105.033 139.384 104.453 141 C 103.985 142.301 102.389 144.554 102.597 146 C 102.794 147.364 106.138 146.772 107 146.601 C 108.073 146.387 108.108 145.966 109 145.599 C 109.637 145.338 110.342 145.284 111 145.08 C 113.018 144.455 114.993 143.447 117 142.818 C 118.059 142.486 119.025 142.39 120 141.818 C 121.596 140.882 121.804 139.772 123 138.861 C 123.886 138.186 125.271 137.689 126 136.863 C 129.441 132.962 132.587 128.4 132.621 123 C 132.627 122.033 132.597 120.92 132.267 120 C 131.867 118.888 131.06 118.253 130.907 117 Z
M 72.053 146 C 71.289 144.655 68.688 141.572 67 141.41 C 66.097 141.323 61.917 143.553 61 143.983 C 57.784 145.492 54.358 146.427 51 147.538 C 49.47 148.044 47.679 149.254 46 149.254 C 44.831 149.254 45.245 146.597 45.264 146 C 45.357 143.028 45.377 139.97 45.241 137 C 45.225 136.664 45.408 134.856 45 134.683 C 43.37 133.988 39.5 136.651 38 137.468 C 33.347 139.999 28.803 142.829 25 146.587 C 23.459 148.111 21.197 150.598 22.112 153 C 23.589 156.878 31.641 156.888 35 156.631 C 38.332 156.376 41.737 156.163 45 155.405 C 45.887 155.199 46.158 154.896 47 154.649 C 48.28 154.273 49.687 153.953 51 153.672 C 51.661 153.53 52.349 153.517 53 153.334 C 56.418 152.379 59.638 150.737 63 149.611 C 64.332 149.165 65.701 148.802 67 148.241 C 71.819 146.162 58.915 151.334 68 147.582 C 69.124 147.118 71.175 146.866 72.053 146 Z
M 125.463 91 C 125.642 91.142 125.771 91.427 126 91.427 C 126.35 91.427 128.112 88.446 128.441 88 C 131.313 84.103 134.447 80.225 138 76.924 C 139.26 75.754 144.398 70.778 146 70.778 C 147.225 70.778 147.228 73.27 150 72.35 C 151.67 71.796 152.822 69.641 152.41 68 C 151.078 62.706 145.106 67.811 143 69.473 C 138.104 73.336 134.185 78.096 130.416 83 C 128.759 85.156 125.787 88.292 125.463 91 Z
M 64.237 160 C 64.492 160.17 64.704 160.433 65 160.511 C 65.972 160.765 70.808 158.983 72 158.684 C 73 158.433 74.007 158.372 75 158.073 C 76.354 157.665 77.651 157.038 79 156.622 C 80.621 156.122 82.403 155.954 84 155.374 C 86.951 154.301 83.087 155.522 85 154.742 C 86.596 154.091 88.376 153.888 90 153.342 C 92.216 152.597 89.606 153.321 91 152.781 C 93.316 151.883 95.722 151.23 98 150.251 C 98.411 150.074 98.587 149.277 98.543 149 C 98.32 147.608 94.226 146.72 93 146.798 C 92.572 146.825 91.274 147.454 91 147.599 C 90.19 148.03 90.82 147.972 90 148.379 C 89.032 148.86 87.981 149.197 87 149.64 C 85.967 150.106 85.032 150.887 84 151.371 L 81 152.673 C 79.651 153.277 81.45 152.713 80 153.38 C 77.372 154.59 74.69 155.613 72 156.691 C 70.98 157.099 70.047 157.927 69 158.307 C 67.38 158.896 65.815 159.28 64.237 160 Z
M 123 90.582 C 123.799 89.48 124.31 84.596 124.665 83 C 126.235 75.953 126.926 69.262 126.529 62 C 126.409 59.813 126.53 55.863 125.47 54 C 123.476 50.495 117.92 53.417 119.527 58 C 120.309 60.23 123.016 59.267 123.868 61 C 124.656 62.603 124.352 70.825 124.347 73 C 124.343 74.7 123.996 76.318 123.835 78 C 123.614 80.306 123.656 82.725 123.195 85 C 123.013 85.896 121.953 89.33 122.212 90 C 122.33 90.305 122.737 90.388 123 90.582 Z
M 61.218 161 C 63.667 161.241 63.59 160.75 61.218 161 Z"/>
    <path fill="#012956" fill-rule="evenodd" transform="matrix(2.774 0 0 2.779 -18.494 35.65)" d="M 158.575 118 C 159.538 118.751 160.908 119.093 162 119.657 C 162.729 120.033 163.28 120.82 164 121.217 C 168.202 123.538 172.28 127.874 174.686 132 C 175.103 132.715 175.886 133.266 176.264 134 C 179.969 141.193 183.016 148.737 183.34 157 C 183.497 160.999 182.982 165.183 181.858 169 C 181.566 169.988 181.527 171.015 181.238 172 C 180.829 173.392 180.047 174.656 179.546 176 C 175.808 186.018 169.158 193.083 160 198.549 C 159.636 198.767 159.38 199.149 159 199.338 C 158.051 199.81 156.974 200.099 156 200.513 C 154.663 201.081 153.406 201.881 152 202.298 C 149.806 202.948 152.193 202.077 150 202.692 C 148.025 203.245 146.051 204.101 144 204.381 C 137.127 205.319 129.92 204.763 123 204.744 C 109.334 204.708 95.666 204.724 82 204.755 L 63 204.749 C 59.823 204.744 56.033 205.333 53 204.191 C 49.636 202.924 46.646 199.416 45.677 196 C 44.987 193.57 45.443 190.504 45.444 188 C 45.448 183.001 45.319 177.997 45.366 173 C 45.391 170.332 45.146 167.654 45.226 165 C 45.248 164.284 45.676 161.985 45 161.474 C 43.515 160.352 39.782 162.243 38 162.457 C 33.287 163.022 28.728 163.486 24 162.792 C 23.04 162.651 21.923 162.632 21 162.32 C 20.607 162.187 20.38 161.828 20 161.676 C 16.869 160.426 14.779 159.691 13.898 156 C 13.312 153.546 15.6 150.555 17 148.735 C 20.299 144.447 25.357 141.887 30 139.402 L 31 138.592 C 31.954 138.068 33.013 137.749 34 137.319 C 35.014 136.876 35.951 136.104 37 135.705 C 38.407 135.169 39.64 134.465 41 133.86 C 42.094 133.373 44.214 133.317 44.794 132 C 45.139 131.218 44.741 127.075 44.696 126 C 44.504 121.348 44.581 116.656 44.564 112 C 44.497 94.334 44.328 76.665 44.335 59 L 44.259 48 C 44.247 43.942 43.918 39.754 45.762 36 C 46.288 34.93 47.482 33.839 48.326 33 C 52.532 28.819 57.5 29.237 63 29.244 L 89 29.261 L 108 29.275 L 129 29.293 C 132.979 29.295 137.045 29.104 141 29.647 C 142.051 29.791 142.96 30.239 144 30.429 C 151.963 31.883 158.582 35.216 165 40.086 C 168.011 42.371 170.356 45.037 172.654 48 C 173.163 48.656 173.848 49.264 174.244 50 C 174.798 51.031 175.679 51.966 176.19 53 C 177.793 56.246 179.213 59.595 180.375 63 C 181.049 64.973 181.336 66.949 181.647 69 C 181.802 70.024 182.172 70.978 182.323 72 C 183.117 77.36 182.571 84.743 181.2 90 C 180.947 90.972 180.608 92.07 180.249 93 C 178.999 96.247 181.522 88.729 179.626 94 C 179.154 95.311 178.865 96.719 178.271 98 C 178.094 98.38 177.716 98.635 177.511 99 C 175.723 102.168 174.13 105.316 171.608 108 C 169.367 110.386 166.848 112.829 164 114.498 C 162.721 115.247 161.387 116.124 160 116.593 C 159.636 116.716 159.067 116.644 158.922 117 L 158.575 118 Z
M 89.447 107 C 88.66 107.694 83.669 108.007 82 108.609 C 79.035 109.677 82.603 108.549 81 109.22 C 79.684 109.771 78.287 110.108 77 110.742 C 76.304 111.085 75.673 111.798 75 112.207 C 71.741 114.187 69.177 117.583 67.578 121 C 67.466 121.239 66.66 122.698 66.567 123 C 65.589 126.172 66.589 128.657 68.623 131 C 69.156 131.613 70.115 132.212 70.431 133 C 70.794 133.909 70.684 135.047 70.941 136 C 71.226 137.057 72.035 137.979 72.418 139 C 73.27 141.27 74.495 143.345 77 144.204 C 80.224 145.31 83.239 143.604 86 142.192 C 87.351 141.502 88.573 140.079 89.625 139 C 91 137.59 92.575 136.369 93.989 135 C 95.668 133.374 97.236 131.634 98.909 130 C 100.051 128.885 101.527 127.46 103 126.767 C 103.593 126.487 104.072 126.546 104.454 126 C 105.702 124.211 106.664 121.961 107.598 120 C 108.1 118.948 108.861 118.016 109.412 117 C 110.484 115.021 111.517 113.013 112.511 111 C 113.786 108.419 117.071 103.609 117.524 101 C 118.028 98.093 117.21 93.927 116.713 91 C 116.545 90.01 116.545 88.984 116.367 88 C 116.059 86.296 115.254 84.638 114.749 83 C 114.269 81.44 114.799 82.562 114.351 81 C 113.948 79.595 113.107 78.341 112.596 77 C 109.752 69.519 105.4 62.635 100 56.704 C 95.967 52.274 91.311 47.972 86 45.17 C 85.311 44.806 84.696 44.143 84 43.809 C 82.436 43.058 79.712 41.9 78 42.006 C 73.868 42.263 72.787 45.543 72.367 49 C 72.245 50.001 71.937 50.993 71.876 52 C 71.728 54.474 72.719 60.655 73.584 63 C 73.963 64.028 74.77 64.889 75.048 66 C 75.457 67.639 74.294 68.544 73.729 70 C 72.783 72.438 72.521 75.406 72.578 78 C 72.622 79.968 72.931 82.175 73.73 84 C 74.035 84.694 74.662 85.272 74.983 86 C 75.341 86.811 74.438 89.803 74.485 91 C 74.617 94.389 75.921 97.541 78.303 100 C 80.267 102.028 82.626 103.805 85.17 105 C 86.609 105.676 88.2 105.944 89.447 107 Z
M 130.907 117 C 131.458 116.524 133.296 116.882 134 116.841 C 136.563 116.692 138.685 116.065 141 115.031 C 143.742 113.805 146.13 112.046 148 109.658 C 148.449 109.085 148.53 108.311 149 107.813 C 149.919 106.84 151.006 106.306 152 105.426 C 154.616 103.111 157.006 100.174 158.458 97 C 158.9 96.035 159.189 94.943 159.649 94 C 160.264 92.741 162.129 91.915 163 90.816 C 164.424 89.02 166.33 87.044 167.371 85 C 169.156 81.494 166.967 85.26 168 83.647 C 168.706 82.544 171.616 76.809 170 75.84 C 164.727 72.678 151.976 77.835 147 80.582 C 146.627 80.789 146.367 81.163 146 81.381 C 139.149 85.445 133.175 90.339 127.586 96 C 126.378 97.224 124.85 98.56 123.897 100 C 123.03 101.309 122.967 102.554 122.47 104 C 122.122 105.013 121.628 105.985 121.271 107 C 120.89 108.085 120.214 109.005 119.721 110 C 119.242 110.967 118.938 112.028 118.486 113 C 117.262 115.635 115.637 118.306 114 120.727 L 111.073 125 C 110.285 126.121 108.08 127.826 107.757 129 C 107.492 129.965 107.496 131.023 107.253 132 C 106.909 133.381 106.318 134.691 105.837 136 C 105.245 137.613 105.033 139.384 104.453 141 C 103.985 142.301 102.389 144.554 102.597 146 C 102.794 147.364 106.138 146.772 107 146.601 C 108.073 146.387 108.108 145.966 109 145.599 C 109.637 145.338 110.342 145.284 111 145.08 C 113.018 144.455 114.993 143.447 117 142.818 C 118.059 142.486 119.025 142.39 120 141.818 C 121.596 140.882 121.804 139.772 123 138.861 C 123.886 138.186 125.271 137.689 126 136.863 C 129.441 132.962 132.587 128.4 132.621 123 C 132.627 122.033 132.597 120.92 132.267 120 C 131.867 118.888 131.06 118.253 130.907 117 Z
M 72.053 146 C 71.289 144.655 68.688 141.572 67 141.41 C 66.097 141.323 61.917 143.553 61 143.983 C 57.784 145.492 54.358 146.427 51 147.538 C 49.47 148.044 47.679 149.254 46 149.254 C 44.831 149.254 45.245 146.597 45.264 146 C 45.357 143.028 45.377 139.97 45.241 137 C 45.225 136.664 45.408 134.856 45 134.683 C 43.37 133.988 39.5 136.651 38 137.468 C 33.347 139.999 28.803 142.829 25 146.587 C 23.459 148.111 21.197 150.598 22.112 153 C 23.589 156.878 31.641 156.888 35 156.631 C 38.332 156.376 41.737 156.163 45 155.405 C 45.887 155.199 46.158 154.896 47 154.649 C 48.28 154.273 49.687 153.953 51 153.672 C 51.661 153.53 52.349 153.517 53 153.334 C 56.418 152.379 59.638 150.737 63 149.611 C 64.332 149.165 65.701 148.802 67 148.241 C 71.819 146.162 58.915 151.334 68 147.582 C 69.124 147.118 71.175 146.866 72.053 146 Z
M 125.463 91 C 125.642 91.142 125.771 91.427 126 91.427 C 126.35 91.427 128.112 88.446 128.441 88 C 131.313 84.103 134.447 80.225 138 76.924 C 139.26 75.754 144.398 70.778 146 70.778 C 147.225 70.778 147.228 73.27 150 72.35 C 151.67 71.796 152.822 69.641 152.41 68 C 151.078 62.706 145.106 67.811 143 69.473 C 138.104 73.336 134.185 78.096 130.416 83 C 128.759 85.156 125.787 88.292 125.463 91 Z
M 64.237 160 C 64.492 160.17 64.704 160.433 65 160.511 C 65.972 160.765 70.808 158.983 72 158.684 C 73 158.433 74.007 158.372 75 158.073 C 76.354 157.665 77.651 157.038 79 156.622 C 80.621 156.122 82.403 155.954 84 155.374 C 86.951 154.301 83.087 155.522 85 154.742 C 86.596 154.091 88.376 153.888 90 153.342 C 92.216 152.597 89.606 153.321 91 152.781 C 93.316 151.883 95.722 151.23 98 150.251 C 98.411 150.074 98.587 149.277 98.543 149 C 98.32 147.608 94.226 146.72 93 146.798 C 92.572 146.825 91.274 147.454 91 147.599 C 90.19 148.03 90.82 147.972 90 148.379 C 89.032 148.86 87.981 149.197 87 149.64 C 85.967 150.106 85.032 150.887 84 151.371 L 81 152.673 C 79.651 153.277 81.45 152.713 80 153.38 C 77.372 154.59 74.69 155.613 72 156.691 C 70.98 157.099 70.047 157.927 69 158.307 C 67.38 158.896 65.815 159.28 64.237 160 Z
M 123 90.582 C 123.799 89.48 124.31 84.596 124.665 83 C 126.235 75.953 126.926 69.262 126.529 62 C 126.409 59.813 126.53 55.863 125.47 54 C 123.476 50.495 117.92 53.417 119.527 58 C 120.309 60.23 123.016 59.267 123.868 61 C 124.656 62.603 124.352 70.825 124.347 73 C 124.343 74.7 123.996 76.318 123.835 78 C 123.614 80.306 123.656 82.725 123.195 85 C 123.013 85.896 121.953 89.33 122.212 90 C 122.33 90.305 122.737 90.388 123 90.582 Z
M 61.218 161 C 63.667 161.241 63.59 160.75 61.218 161 Z"/>
    <path fill="#012956" d="M 703 131.558 C 710.155 129.105 716.892 125.371 724 122.732 C 738.526 117.34 753.774 113.503 769 110.712 C 777.288 109.192 785.617 108.647 794 108.04 C 796 107.895 798.003 107.545 800 107.453 C 809.032 107.036 817.994 107.377 827 108.044 C 832.681 108.465 838.348 108.836 844 109.626 C 889.337 115.956 932.624 136.727 967 166.705 C 1011.891 205.853 1042.609 261.627 1052.615 320 C 1054.2 329.247 1055.74 338.609 1056.298 348 C 1056.653 353.988 1056.592 360.003 1056.584 366 C 1056.577 371.321 1056.668 376.69 1056.303 382 C 1055.071 399.899 1051.735 417.812 1046.683 435 C 1044.914 441.019 1043.095 447.011 1041.222 453 C 1040.579 455.057 1039.566 457.012 1038.758 459 C 1036.425 464.737 1034.121 470.391 1031.447 476 C 1029.368 480.36 1027.18 484.645 1025.093 489 C 1024.427 490.39 1023.411 491.638 1022.693 493 C 1019.75 498.58 1016.031 503.701 1012.616 509 C 1002.757 524.301 991.098 538.346 978.004 551 C 963.908 564.622 948.222 577.272 931 586.593 C 926.998 588.759 923.179 591.48 919 593.31 C 908.711 597.814 898.698 602.848 888 606.357 C 875.601 610.423 862.92 613.684 850 615.743 C 846.674 616.273 843.36 617.048 840 617.41 C 829.093 618.585 817.982 619.26 807 619.199 C 803.982 619.182 801.003 618.86 798 618.766 C 785.84 618.385 773.857 617.49 762 614.799 C 757.703 613.824 753.249 613.427 749 612.228 C 744.352 610.916 739.618 609.79 735 608.395 C 728.261 606.359 721.562 603.88 715 601.35 C 711.595 600.037 708.324 598.268 705 596.776 C 685.597 588.072 667.602 576.727 651 563.403 C 643.871 557.681 637.38 551.278 631 544.753 C 621.972 535.52 613.653 525.566 606.238 515 C 602.796 510.095 599.233 505.244 596.328 500 C 594.28 496.305 591.61 492.841 589.835 489 C 588.585 486.296 586.946 483.744 585.814 481 C 584.563 477.966 582.743 475.089 581.617 472 C 579.048 464.945 575.734 458.183 573.462 451 C 572.296 447.313 570.666 443.743 569.671 440 C 567.208 430.738 564.305 421.497 562.711 412 C 557.661 381.913 556.515 351.099 562.3 321 C 563.195 316.343 563.738 311.61 564.904 307 C 566.686 299.958 568.641 292.933 570.81 286 C 574.11 275.449 578.555 265.21 582.761 255 C 583.465 253.29 584.521 251.677 585.304 250 C 587.216 245.904 589.34 241.973 591.483 238 C 606.486 210.191 626.742 185.131 651 164.783 C 661.878 155.659 673.814 147.729 686 140.53 C 691.523 137.267 697.534 134.859 703 131.558 Z
M 1313 422.343 C 1317.292 423.11 1321.66 422.899 1326 422.911 C 1333.333 422.931 1340.667 422.803 1348 422.817 C 1369.666 422.857 1391.334 422.928 1413 422.856 L 1434 422.863 C 1439.31 422.852 1444.792 422.493 1450 423.737 C 1452.753 424.395 1455.428 425.638 1458 426.781 C 1459.424 427.413 1460.759 428.469 1462 429.405 C 1468.289 434.152 1473.11 440.39 1475.364 448 C 1476.613 452.213 1476.511 456.657 1476.541 461 C 1476.771 493.999 1476.323 527.001 1476.535 560 L 1476.561 573 C 1476.557 575.662 1476.702 578.356 1476.325 581 C 1474.907 590.968 1467.986 600.786 1459 605.388 C 1456.771 606.529 1454.409 607.565 1452 608.286 C 1448.122 609.448 1443.999 609.333 1440 609.338 L 1427 609.37 C 1408.334 609.439 1389.666 609.376 1371 609.369 C 1312.001 609.345 1252.999 609.243 1194 609.344 C 1177 609.373 1160 609.421 1143 609.376 C 1132.458 609.348 1122.937 610.504 1113 606.439 C 1111.943 606.007 1111.003 605.202 1110 604.666 C 1101.371 600.053 1095.165 590.651 1093.771 581 C 1093.046 575.976 1093.604 570.112 1093.614 565 C 1093.659 543 1093.618 521 1093.605 499 C 1093.55 402.001 1093.89 304.999 1093.596 208 C 1093.555 194.334 1093.582 180.666 1093.609 167 C 1093.624 159.458 1092.707 151.334 1094.777 144 C 1095.703 140.717 1097.368 137.773 1099.32 135 C 1105.852 125.719 1115.352 118.647 1127 117.622 C 1129.962 117.362 1133.028 117.591 1136 117.586 C 1143.332 117.574 1150.668 117.686 1158 117.608 C 1184.33 117.33 1210.669 117.633 1237 117.572 C 1255.405 117.529 1270.87 114.564 1284 130.284 C 1293.177 141.271 1292.385 151.513 1292.392 165 C 1292.396 174.667 1292.405 184.333 1292.351 194 C 1292.061 244.99 1292.122 296.01 1292.359 347 C 1292.41 358 1292.334 369 1292.38 380 C 1292.418 389.016 1291.42 398.465 1294.805 407 C 1295.39 408.476 1296.442 409.707 1297.339 411 C 1299.131 413.582 1301.238 416.476 1304 418.13 C 1306.946 419.893 1309.824 421.085 1313 422.343 Z
M 1557 609.365 C 1553.109 608.88 1549.496 607.509 1546 605.858 C 1537.038 601.626 1529.482 591.854 1527.87 582 C 1526.964 576.464 1527.46 570.595 1527.451 565 L 1527.438 544 C 1527.519 476 1527.423 408 1527.423 340 C 1527.423 291.667 1527.49 243.333 1527.444 195 L 1527.441 169 C 1527.45 153.324 1526.509 144.843 1536.695 132 C 1543.443 123.492 1554.346 118.532 1565 117.589 C 1569.606 117.181 1574.377 117.546 1579 117.548 L 1599 117.534 L 1704 117.544 C 1712.999 117.544 1722.001 117.634 1731 117.582 C 1741.328 117.523 1751.683 117.202 1762 117.854 C 1778.697 118.908 1795.231 122.809 1811 128.136 C 1814.339 129.264 1817.79 130.322 1821 131.791 C 1845.136 142.841 1868.425 157.719 1886.082 178 C 1906.042 200.925 1918.695 223.871 1929.713 252 C 1932.887 260.103 1935.474 268.558 1937.563 277 C 1939.541 284.996 1941.722 292.885 1943.229 301 C 1945.858 315.151 1946.961 329.636 1947.623 344 C 1948.915 372.041 1947.452 400.399 1942.196 428 C 1940.788 435.398 1938.86 442.79 1936.691 450 C 1935.492 453.985 1934.544 458.036 1933.267 462 C 1926.152 484.093 1916.312 505.626 1903.454 525 C 1899.773 530.547 1895.572 535.801 1891.422 541 C 1884.464 549.716 1876.542 557.82 1868 564.982 C 1863.383 568.853 1858.867 572.824 1854 576.377 C 1837.018 588.776 1816.262 597.564 1796 602.73 C 1789.369 604.421 1782.802 606.261 1776 607.288 C 1761.091 609.54 1746.042 609.436 1731 609.411 L 1686 609.39 L 1598 609.391 C 1584.341 609.376 1570.656 609.633 1557 609.365 Z"/>
  </g>
</svg>
