<svg xmlns="http://www.w3.org/2000/svg" width="205" height="228" viewBox="0 0 205 228" role="img" aria-label="BOLD butterfly logo">
  <rect width="205" height="228" fill="#fff"/>
  <path fill="#033870" fill-rule="evenodd" d="M14.67 155.5C15.79 159.22 16.16 159.45 16.5 159.81C16.84 160.18 17.17 160.5 17.5 160.7C17.83 160.89 18.17 160.84 18.5 160.99C18.83 161.15 19.17 161.46 19.5 161.6C19.83 161.74 20.16 161.68 20.5 161.83C20.84 161.98 21.21 162.35 21.55 162.5C21.88 162.65 21.51 162.62 22.5 162.74C23.49 162.85 26 163.09 27.5 163.16C29 163.23 29.67 163.25 31.5 163.17C33.33 163.09 37.18 162.79 38.5 162.68C39.82 162.56 39.12 162.62 39.45 162.5C39.78 162.38 39.85 162.12 40.5 161.95C41.15 161.78 42.69 161.65 43.35 161.5C44.02 161.35 44.14 161.12 44.5 161.07C44.86 161.02 45.28 161.13 45.5 161.21C45.72 161.28 45.69 161.28 45.79 161.5C45.9 161.72 46.05 162.17 46.11 162.5C46.17 162.83 46.13 158.17 46.16 163.5L46.27 194.5C46.33 200 46.36 196 46.5 196.5C46.64 197 46.95 197.17 47.1 197.5C47.24 197.83 46.98 197.81 47.38 198.5C47.78 199.19 48.98 201 49.5 201.67C50.02 202.34 50.17 202.32 50.5 202.54C50.83 202.76 51.24 202.84 51.5 203C51.76 203.16 51.57 203.23 52.07 203.5C52.57 203.77 53.59 204.42 54.5 204.65C55.41 204.88 43.67 204.85 57.5 204.89C71.33 204.93 123.17 204.92 137.5 204.88C151.83 204.85 142.28 204.74 143.5 204.68C144.72 204.61 144.33 204.62 144.83 204.5C145.33 204.38 145.89 204.08 146.5 203.93C147.11 203.79 148 203.78 148.5 203.64C149 203.51 148.88 203.29 149.5 203.1C150.12 202.91 151.58 202.69 152.25 202.5C152.92 202.31 153.12 202.08 153.5 201.95C153.88 201.82 154.25 201.82 154.5 201.74C154.75 201.67 154.82 201.62 154.99 201.5C155.16 201.38 155.16 201.21 155.5 201.04C155.84 200.87 156.68 200.65 157.02 200.5C157.35 200.35 157.09 200.31 157.5 200.15C157.91 199.98 158.78 199.85 159.45 199.5C160.11 199.15 160.99 198.34 161.5 198.03C162.01 197.73 162 197.98 162.5 197.66C163 197.34 164 196.44 164.5 196.09C165 195.74 165.17 195.77 165.5 195.55C165.83 195.34 165.91 195.29 166.5 194.78L169.01 192.5C170.22 191.29 172.73 188.67 173.72 187.5C174.7 186.33 174.44 186.18 174.9 185.5C175.37 184.82 176.18 183.93 176.5 183.43C176.82 182.93 176.68 182.82 176.85 182.5C177.02 182.18 177.33 181.83 177.51 181.5C177.68 181.17 177.7 180.83 177.9 180.5C178.1 180.17 178.53 179.83 178.69 179.5C178.86 179.17 178.77 178.87 178.91 178.5C179.04 178.13 179.31 177.78 179.5 177.28C179.69 176.78 179.86 175.96 180.07 175.5C180.27 175.04 180.58 174.83 180.72 174.5C180.86 174.17 180.78 173.92 180.91 173.5C181.04 173.08 181.33 172.65 181.5 171.98C181.67 171.31 181.75 170.25 181.95 169.5C182.14 168.75 182.48 168.5 182.67 167.5C182.85 166.5 182.92 164.67 183.06 163.5C183.19 162.33 183.42 161.51 183.5 160.51C183.58 159.51 183.56 158.33 183.51 157.5C183.45 156.67 183.29 156.67 183.15 155.5C183.01 154.33 182.88 151.67 182.68 150.5C182.48 149.33 182.16 149.24 181.96 148.5C181.76 147.76 181.68 146.74 181.5 146.07C181.32 145.41 181.03 144.93 180.9 144.5C180.77 144.07 180.85 143.83 180.7 143.5C180.55 143.17 180.2 142.94 180 142.5C179.8 142.06 179.63 141.17 179.5 140.84C179.37 140.5 179.34 140.72 179.23 140.5C179.13 140.28 178.98 139.83 178.87 139.5L178.61 138.5C178.44 138.17 178.18 138.12 177.83 137.5C177.47 136.88 177 135.59 176.5 134.76C176 133.92 175.3 133.21 174.82 132.5C174.34 131.79 174.1 131.17 173.61 130.5C173.12 129.83 172.67 129.33 171.88 128.5C171.1 127.67 169.77 126.33 168.91 125.5C168.05 124.67 167.32 124 166.73 123.5C166.13 123 165.7 122.73 165.33 122.5C164.96 122.27 164.97 122.44 164.5 122.1C164.03 121.77 162.99 120.83 162.49 120.5C161.99 120.17 161.83 120.3 161.5 120.13C161.17 119.97 160.82 119.66 160.48 119.5C160.15 119.34 159.8 119.31 159.5 119.15C159.2 118.98 158.81 118.77 158.67 118.5C158.52 118.23 158.49 117.75 158.63 117.5C158.77 117.25 159.06 117.17 159.5 117C159.94 116.83 160.72 116.75 161.29 116.5C161.87 116.25 162.59 115.75 162.96 115.5C163.33 115.25 163.2 115.17 163.5 115C163.8 114.83 164.23 114.83 164.73 114.5C165.23 114.17 165.87 113.5 166.5 113.03C167.13 112.56 167.83 112.22 168.5 111.68C169.17 111.15 169.82 110.51 170.5 109.81C171.18 109.12 171.73 108.55 172.57 107.5C173.41 106.45 174.95 104.33 175.52 103.5C176.09 102.67 175.8 102.83 176 102.5C176.2 102.17 176.53 101.83 176.7 101.5C176.87 101.17 176.73 101.04 177.03 100.5C177.33 99.96 178.16 98.95 178.5 98.29C178.84 97.62 178.86 96.96 179.04 96.5C179.22 96.04 179.45 95.83 179.58 95.5C179.71 95.17 179.66 94.88 179.81 94.5C179.96 94.12 180.27 93.87 180.5 93.2C180.73 92.53 181.01 91.12 181.19 90.5C181.36 89.88 181.4 90.33 181.56 89.5C181.72 88.67 181.98 86.32 182.14 85.5C182.3 84.68 182.41 84.89 182.5 84.56C182.59 84.22 182.6 84.68 182.65 83.5C182.71 82.32 182.81 79.17 182.81 77.5C182.8 75.83 182.68 74.32 182.63 73.5L182.5 72.59C182.41 72.26 182.27 72.41 182.1 71.5C181.94 70.59 181.69 68.14 181.5 67.14C181.31 66.14 181.13 66.11 180.97 65.5C180.82 64.89 180.73 64 180.56 63.5C180.38 63 180.1 62.97 179.93 62.5C179.75 62.03 179.67 61.2 179.5 60.7C179.33 60.2 179.06 59.87 178.93 59.5C178.81 59.13 178.83 58.76 178.76 58.5C178.68 58.24 178.61 58.13 178.5 57.96C178.39 57.8 178.25 57.82 178.08 57.5C177.91 57.18 177.67 56.37 177.5 56.04C177.33 55.71 177.22 55.85 177.06 55.5C176.89 55.15 176.74 54.42 176.5 53.92C176.26 53.42 175.91 52.9 175.63 52.5C175.35 52.1 175.14 52 174.82 51.5C174.5 51 174.07 50 173.73 49.5C173.39 49 173.16 48.96 172.79 48.5C172.41 48.04 171.92 47.25 171.5 46.75C171.08 46.25 170.58 45.88 170.26 45.5C169.94 45.12 169.89 44.81 169.59 44.5C169.3 44.19 168.85 43.98 168.5 43.65C168.15 43.31 167.8 42.8 167.47 42.5C167.13 42.2 167.16 42.38 166.5 41.86C165.84 41.33 164.17 39.87 163.5 39.37C162.83 38.86 163 39.15 162.5 38.8C162 38.46 161 37.61 160.5 37.3C160 36.99 160.04 37.24 159.5 36.94C158.96 36.64 157.91 35.85 157.24 35.5C156.57 35.15 155.88 35.02 155.5 34.85C155.12 34.69 155.31 34.63 154.98 34.5C154.64 34.37 153.91 34.25 153.5 34.06C153.09 33.87 153 33.58 152.5 33.38C152 33.17 151 32.99 150.5 32.83C150 32.67 150 32.53 149.5 32.4C149 32.27 148 32.17 147.5 32.06C147 31.95 146.73 31.83 146.5 31.74C146.27 31.65 146.63 31.61 146.13 31.5C145.63 31.39 144.27 31.26 143.5 31.09C142.73 30.91 142.33 30.6 141.5 30.46C140.67 30.31 139.67 30.28 138.5 30.24C137.33 30.19 148 30.19 134.5 30.17L57.5 30.14C44.17 30.18 55.17 30.29 54.5 30.43C53.83 30.58 53.83 30.87 53.5 31.02C53.17 31.16 52.83 31.14 52.5 31.3C52.17 31.47 51.83 31.83 51.5 32.02C51.17 32.2 50.89 32.17 50.5 32.42C50.11 32.66 49.67 33.02 49.17 33.5C48.67 33.98 47.94 34.73 47.5 35.29C47.06 35.84 46.75 36.3 46.5 36.83C46.25 37.37 46.18 38.06 46.01 38.5C45.84 38.94 45.61 39.17 45.49 39.5C45.36 39.83 45.33 40 45.27 40.5C45.21 41 45.1 30.5 45.11 42.5C45.12 54.5 45.28 98.67 45.34 112.5C45.41 126.33 45.41 122.67 45.5 125.5C45.59 128.33 45.82 128.33 45.87 129.5C45.93 130.67 46.04 131.76 45.82 132.5C45.59 133.24 45.05 133.63 44.5 133.92C43.95 134.22 42.92 134.18 42.5 134.28C42.08 134.38 42.15 134.39 41.98 134.5C41.82 134.61 41.82 134.76 41.5 134.93C41.18 135.09 40.42 135.32 40.09 135.5C39.75 135.68 39.9 135.83 39.5 136C39.1 136.17 38.2 136.31 37.7 136.5C37.2 136.69 36.87 136.97 36.5 137.13C36.13 137.29 35.83 137.29 35.5 137.47C35.17 137.64 34.83 138 34.5 138.18C34.17 138.35 33.83 138.35 33.5 138.5C33.17 138.65 32.83 138.92 32.5 139.07C32.17 139.23 32 139.12 31.5 139.42C31 139.73 30.09 140.54 29.5 140.89C28.91 141.23 28.3 141.33 27.97 141.5C27.63 141.67 27.78 141.71 27.5 141.88C27.22 142.05 26.59 142.3 26.26 142.5C25.93 142.7 25.79 142.92 25.5 143.09C25.21 143.26 25.32 142.93 24.52 143.5C23.72 144.07 21.72 145.67 20.69 146.5C19.67 147.33 18.87 148 18.39 148.5C17.91 149 18.12 149.07 17.8 149.5C17.49 149.93 16.84 150.58 16.5 151.08C16.16 151.58 15.95 152.21 15.79 152.5C15.62 152.79 15.69 152.32 15.5 152.82C15.31 153.32 14.67 154.55 14.67 155.5C14.66 156.45 15.18 157.78 15.49 158.5Z M66.44 126.5C66.85 129 66.83 129 67.16 129.5C67.49 130 68.27 131 68.7 131.5C69.14 132 69.48 132.17 69.79 132.5C70.1 132.83 70.38 132.83 70.58 133.5C70.78 134.17 70.84 135.88 70.99 136.5C71.14 137.12 71.34 136.91 71.5 137.24C71.66 137.58 71.77 138.12 71.96 138.5C72.14 138.88 72.47 139.17 72.62 139.5C72.77 139.83 72.73 140.17 72.84 140.5C72.95 140.83 73.09 141.17 73.27 141.5C73.45 141.83 73.72 142.23 73.92 142.5C74.13 142.77 74.24 142.86 74.5 143.11L75.5 144.01C75.85 144.24 76.26 144.31 76.6 144.5C76.93 144.69 77.18 144.99 77.5 145.12C77.82 145.25 78 145.25 78.5 145.29C79 145.32 79.83 145.38 80.5 145.33C81.17 145.29 82 145.19 82.5 145.03C83 144.88 83.17 144.56 83.5 144.4C83.83 144.25 84.17 144.28 84.5 144.13C84.83 143.97 85.17 143.65 85.5 143.48C85.83 143.31 86.17 143.29 86.5 143.1C86.83 142.91 87.17 142.64 87.5 142.35C87.83 142.06 88.17 141.63 88.5 141.35C88.83 141.07 89.17 140.99 89.5 140.69C89.83 140.38 90.18 139.82 90.51 139.5C90.84 139.18 90.83 139.34 91.5 138.76C92.17 138.18 93.09 137.4 94.5 136.02C95.91 134.64 98.66 131.75 99.93 130.5C101.2 129.25 101.35 129.04 102.11 128.5C102.88 127.96 103.96 127.59 104.5 127.26C105.04 126.93 105.12 126.79 105.36 126.5C105.6 126.21 105.78 125.89 105.97 125.5C106.16 125.11 106.32 124.51 106.5 124.18C106.68 123.85 106.89 123.78 107.04 123.5C107.19 123.22 107.22 122.83 107.4 122.5C107.58 122.17 107.95 121.83 108.13 121.5C108.3 121.17 108.3 120.83 108.46 120.5C108.62 120.17 108.93 119.82 109.1 119.5C109.28 119.18 109.2 119.08 109.5 118.58C109.8 118.08 110.59 117.01 110.88 116.5C111.17 115.99 111.04 115.83 111.23 115.5C111.42 115.17 111.8 114.86 112.01 114.5C112.22 114.14 112.32 113.69 112.5 113.36C112.68 113.02 112.94 112.81 113.08 112.5C113.22 112.19 113.15 111.83 113.32 111.5C113.49 111.17 113.91 110.83 114.1 110.5C114.29 110.17 114.31 109.83 114.48 109.5C114.65 109.17 114.98 108.83 115.14 108.5C115.3 108.17 115.09 108.17 115.44 107.5C115.79 106.83 116.9 105.14 117.24 104.5C117.58 103.86 117.36 103.99 117.5 103.66C117.64 103.32 117.95 102.86 118.09 102.5C118.23 102.14 118.32 103 118.32 101.5C118.32 100 118.21 95.25 118.07 93.5C117.93 91.75 117.67 92.03 117.5 91.03C117.33 90.03 117.22 88.25 117.05 87.5C116.88 86.75 116.65 87 116.49 86.5C116.33 86 116.26 85.09 116.1 84.5C115.93 83.91 115.69 83.65 115.5 82.98C115.31 82.32 115.14 81.02 114.97 80.5C114.8 79.98 114.65 80.22 114.5 79.89C114.35 79.55 114.25 78.9 114.07 78.5C113.89 78.1 113.6 78 113.41 77.5C113.22 77 113.07 75.93 112.92 75.5C112.77 75.07 112.66 75.26 112.5 74.93C112.34 74.6 112.2 73.91 111.99 73.5C111.78 73.09 111.41 72.83 111.24 72.5C111.07 72.17 111.08 71.77 110.96 71.5C110.84 71.23 110.68 71.2 110.5 70.87C110.32 70.53 110.22 70.06 109.87 69.5C109.53 68.94 108.73 68 108.42 67.5C108.12 67 108.19 66.77 108.03 66.5C107.88 66.23 107.76 66.26 107.5 65.91C107.24 65.56 106.74 64.8 106.5 64.4C106.26 64 106.42 63.98 106.06 63.5C105.71 63.02 104.86 62.17 104.35 61.5C103.84 60.83 104 60.67 103 59.5C102.01 58.33 99.98 56.09 98.39 54.5C96.81 52.91 94.46 50.81 93.5 49.98C92.54 49.15 93.32 49.98 92.66 49.5C91.99 49.02 90.19 47.56 89.5 47.08C88.81 46.6 88.83 46.83 88.5 46.61C88.17 46.4 87.83 46.03 87.5 45.78L86.5 45.12C86.17 44.94 85.83 44.9 85.5 44.7C85.17 44.5 84.87 44.12 84.5 43.92C84.13 43.72 83.64 43.65 83.31 43.5C82.98 43.35 83.03 43.16 82.5 43C81.97 42.83 80.61 42.64 80.11 42.5C79.61 42.36 79.77 42.23 79.5 42.15C79.23 42.07 79.17 41.86 78.5 42.02C77.83 42.18 76.26 42.69 75.5 43.11C74.74 43.52 74.35 43.93 73.93 44.5C73.5 45.07 73.21 45.61 72.97 46.5C72.73 47.39 72.66 49.03 72.5 49.86C72.34 50.7 72.11 50.73 72.03 51.5C71.94 52.27 71.92 53.62 72 54.5C72.08 55.38 72.32 55.59 72.5 56.76C72.68 57.92 72.94 60.58 73.1 61.5C73.27 62.42 73.39 61.94 73.5 62.28C73.61 62.61 73.57 62.96 73.78 63.5C74 64.04 74.54 64.83 74.79 65.5C75.04 66.17 75.34 66.83 75.3 67.5C75.26 68.17 74.8 69 74.56 69.5C74.33 70 74.06 70.05 73.88 70.5C73.7 70.95 73.64 71.71 73.5 72.21C73.36 72.71 73.14 72.62 73.02 73.5C72.9 74.38 72.79 76.33 72.76 77.5C72.74 78.67 72.8 79.67 72.86 80.5C72.92 81.33 73.04 82.07 73.14 82.5C73.25 82.93 73.38 82.76 73.5 83.09C73.62 83.43 73.67 84.1 73.86 84.5C74.06 84.9 74.46 85.17 74.65 85.5C74.84 85.83 74.93 86.17 75 86.5C75.07 86.83 75.12 86.83 75.07 87.5C75.02 88.17 74.72 89.33 74.7 90.5C74.68 91.67 74.84 93.67 74.92 94.5C75 95.33 75.09 95.26 75.18 95.5C75.28 95.74 75.34 95.62 75.5 95.95C75.66 96.28 75.67 96.74 76.13 97.5C76.6 98.26 77.74 99.81 78.3 100.5C78.86 101.19 78.8 101.07 79.5 101.66C80.2 102.26 81.83 103.62 82.5 104.09C83.17 104.56 83 104.19 83.5 104.5C84 104.8 84.83 105.59 85.5 105.92C86.17 106.25 87 106.26 87.5 106.47C88 106.68 88.17 107 88.5 107.17C88.83 107.34 89.5 107.41 89.5 107.5C89.5 107.59 89.33 107.62 88.5 107.72C87.67 107.82 85.29 107.98 84.5 108.11C83.71 108.25 84.1 108.39 83.77 108.5C83.43 108.61 82.88 108.67 82.5 108.79C82.12 108.91 81.73 109.09 81.5 109.21C81.27 109.33 81.48 109.38 81.14 109.5C80.81 109.62 79.94 109.79 79.5 109.96C79.06 110.13 78.83 110.36 78.5 110.52C78.17 110.67 77.83 110.67 77.5 110.87C77.17 111.07 76.83 111.49 76.5 111.71C76.17 111.93 75.83 111.98 75.5 112.17C75.17 112.36 75.28 112.14 74.5 112.86C73.72 113.58 71.9 115.23 70.82 116.5C69.75 117.77 68.56 119.67 68.05 120.5C67.54 121.33 67.93 121.17 67.77 121.5C67.61 121.83 67.25 122.17 67.09 122.5C66.92 122.83 66.89 122.83 66.78 123.5C66.67 124.17 66.45 125.67 66.44 126.5C66.43 127.33 66.61 128 66.73 128.5Z M102.77 146.5C103.79 147.81 104 147.91 104.5 147.93C105 147.95 105.83 147.83 106.5 147.71C107.17 147.58 108 147.39 108.5 147.17C109 146.96 109 146.61 109.5 146.43C110 146.24 111 146.2 111.5 146.05C112 145.89 112 145.65 112.5 145.48C113 145.3 114 145.16 114.5 144.99C115 144.81 114.5 144.78 115.5 144.42C116.5 144.06 119.5 143.22 120.5 142.84C121.5 142.46 121.22 142.36 121.5 142.14C121.78 141.91 121.75 141.94 122.15 141.5L123.91 139.5C124.63 138.9 126 138.26 126.5 137.93C127 137.59 126.57 137.9 126.93 137.5L128.66 135.5C129.18 134.83 129.58 134.33 130.1 133.5C130.62 132.67 131.4 131.33 131.78 130.5C132.16 129.67 132.18 129 132.38 128.5C132.58 128 132.84 128.17 133.01 127.5C133.17 126.83 133.33 125.33 133.4 124.5C133.47 123.67 133.46 123.17 133.42 122.5C133.37 121.83 133.28 121 133.12 120.5C132.95 120 132.6 119.83 132.41 119.5C132.23 119.17 132 118.77 132.02 118.5C132.03 118.23 132.09 117.98 132.5 117.87C132.91 117.76 133.5 117.97 134.5 117.86C135.5 117.74 137.67 117.34 138.5 117.17C139.33 117 139.27 116.92 139.5 116.81C139.73 116.7 139.57 116.63 139.91 116.5C140.24 116.37 141.1 116.18 141.5 116.02C141.9 115.85 141.97 115.66 142.3 115.5C142.64 115.34 142.73 115.55 143.5 115.05C144.27 114.55 146.04 113.26 146.9 112.5C147.77 111.74 148.25 111.09 148.68 110.5C149.11 109.91 149.3 109.3 149.5 108.96C149.7 108.63 149.64 108.74 149.87 108.5L150.88 107.5C151.15 107.27 151.06 107.5 151.5 107.14C151.94 106.79 152.72 106.14 153.5 105.36C154.28 104.59 155.61 103.14 156.19 102.5L157 101.5C157.2 101.17 157.07 101 157.4 100.5C157.72 100 158.57 99.08 158.92 98.5C159.28 97.92 159.34 97.35 159.5 97.02C159.66 96.68 159.72 96.91 159.89 96.5C160.06 96.09 159.9 95.33 160.5 94.57C161.1 93.8 162.84 92.58 163.5 91.91C164.16 91.23 164.15 90.9 164.48 90.5C164.8 90.1 165.04 90 165.45 89.5C165.85 89 166.59 88 166.92 87.5C167.25 87 167.22 86.83 167.44 86.5C167.66 86.17 167.91 86.1 168.25 85.5C168.6 84.9 169.23 83.42 169.5 82.92C169.77 82.42 169.63 83.07 169.89 82.5C170.15 81.93 170.84 80.17 171.06 79.5C171.27 78.83 171.19 79 171.19 78.5C171.19 78 171.18 76.94 171.07 76.5C170.95 76.06 170.93 76.07 170.5 75.84C170.07 75.6 169.17 75.23 168.5 75.09C167.83 74.94 167.33 74.96 166.5 74.96C165.67 74.96 164.28 74.99 163.5 75.08C162.72 75.17 162.67 75.34 161.84 75.5C161.01 75.66 159.22 75.88 158.5 76.07C157.78 76.26 158 76.47 157.5 76.64C157 76.82 155.94 76.99 155.5 77.13C155.06 77.27 155.18 77.38 154.85 77.5C154.52 77.62 153.89 77.7 153.5 77.82C153.11 77.95 152.71 78.14 152.5 78.25C152.29 78.36 152.39 78.41 152.22 78.5C152.06 78.59 151.82 78.61 151.5 78.78C151.18 78.94 150.8 79.27 150.3 79.5C149.8 79.73 149.13 79.8 148.5 80.14C147.87 80.48 147 81.24 146.5 81.54C146 81.84 145.83 81.77 145.5 81.95C145.17 82.14 144.83 82.47 144.5 82.65C144.17 82.84 144 82.73 143.5 83.06C143 83.39 142 84.28 141.5 84.62C141 84.96 140.93 84.81 140.5 85.12C140.07 85.43 139.75 85.84 138.92 86.5C138.08 87.16 137.07 87.73 135.5 89.06C133.93 90.4 131.43 92.61 129.5 94.52C127.57 96.43 124.95 99.34 123.91 100.5C122.88 101.66 123.49 100.83 123.29 101.5C123.08 102.17 122.9 103.83 122.69 104.5C122.48 105.17 122.23 105.05 122.03 105.5C121.83 105.95 121.69 106.69 121.5 107.19C121.31 107.69 121.05 108.11 120.91 108.5C120.77 108.89 120.84 109.17 120.66 109.5C120.48 109.83 120.04 110.17 119.85 110.5C119.65 110.83 119.66 111.12 119.5 111.45C119.34 111.79 119.05 112.16 118.91 112.5C118.77 112.84 118.85 113.17 118.68 113.5C118.51 113.83 118.1 114.17 117.91 114.5C117.72 114.83 117.71 115.17 117.54 115.5C117.37 115.83 117.06 116.17 116.89 116.5C116.72 116.83 116.73 117.07 116.5 117.49C116.27 117.91 115.74 118.69 115.5 119.02C115.26 119.36 115.21 119.22 115.04 119.5C114.88 119.78 114.83 120.2 114.5 120.7C114.17 121.2 113.38 122 113.05 122.5C112.72 123 113.08 122.84 112.5 123.67C111.92 124.51 110.27 126.7 109.59 127.5C108.91 128.3 108.73 128.17 108.45 128.5C108.16 128.83 108.05 128.92 107.9 129.5C107.74 130.08 107.66 131.29 107.5 131.95C107.34 132.62 107.12 132.91 106.96 133.5C106.81 134.09 106.73 135 106.56 135.5C106.39 136 106.11 136.01 105.94 136.5C105.76 136.99 105.65 137.96 105.5 138.46C105.35 138.96 105.15 138.99 105.01 139.5C104.87 140.01 104.84 141 104.67 141.5C104.49 142 104.15 142.1 103.95 142.5C103.76 142.9 103.64 143.59 103.5 143.93C103.36 144.26 103.25 144.07 103.13 144.5C103 144.93 102.71 145.99 102.77 146.5C102.83 147.01 103.21 147.34 103.5 147.58Z M21.99 152.5C22.19 153.83 22.46 154.22 22.7 154.5C22.94 154.78 23.2 154.93 23.5 155.18L24.5 155.98C24.91 156.2 25.66 156.35 25.99 156.5C26.32 156.65 26.25 156.77 26.5 156.88C26.75 156.98 26.5 157 27.5 157.13C28.5 157.27 31.5 157.58 32.5 157.68C33.5 157.77 32.83 157.74 33.5 157.69C34.17 157.63 35.17 157.44 36.5 157.33C37.83 157.22 40.5 157.11 41.5 157.03L42.5 156.89C42.84 156.8 42.89 156.64 43.55 156.5C44.22 156.36 45.84 156.21 46.5 156.04C47.16 155.87 46.83 155.67 47.5 155.49C48.17 155.31 49.82 155.11 50.5 154.95C51.18 154.78 50.94 154.67 51.61 154.5C52.27 154.33 53.85 154.1 54.5 153.9C55.15 153.7 55.17 153.44 55.5 153.31C55.83 153.18 56.17 153.21 56.5 153.13L57.5 152.8C57.75 152.69 57.66 152.61 57.99 152.5C58.32 152.39 59.08 152.26 59.5 152.13C59.92 152.01 60.29 151.84 60.5 151.74C60.71 151.63 60.45 151.62 60.79 151.5C61.12 151.38 62.05 151.21 62.5 151.03C62.95 150.86 63 150.62 63.5 150.45C64 150.28 65.04 150.18 65.5 150.02C65.96 149.86 65.9 149.65 66.24 149.5C66.57 149.35 67.12 149.3 67.5 149.12C67.88 148.93 68 148.6 68.5 148.39C69 148.19 70.08 148.02 70.5 147.87C70.92 147.72 70.71 147.64 71.05 147.5C71.38 147.36 72.17 147.17 72.5 147.01C72.83 146.84 73.02 146.75 73.01 146.5C73 146.25 73.03 146.14 72.45 145.5C71.86 144.86 70.16 143.29 69.5 142.69C68.84 142.09 68.83 142.08 68.5 141.9C68.17 141.73 67.83 141.63 67.5 141.62C67.17 141.6 66.83 141.72 66.5 141.81C66.17 141.91 65.74 142.08 65.5 142.19C65.26 142.31 65.41 142.36 65.08 142.5C64.74 142.64 63.86 142.85 63.5 143.02C63.14 143.18 63.24 143.33 62.91 143.5C62.57 143.67 61.9 143.82 61.5 144.01C61.1 144.2 60.83 144.49 60.5 144.63C60.17 144.77 59.83 144.75 59.5 144.85L58.5 145.2C58.27 145.31 58.46 145.37 58.13 145.5C57.79 145.63 56.94 145.78 56.5 145.96C56.06 146.15 56 146.43 55.5 146.6C55 146.77 54.02 146.82 53.5 146.97C52.98 147.12 52.9 147.33 52.4 147.5C51.9 147.67 50.98 147.82 50.5 148.02C50.02 148.21 50.17 148.46 49.5 148.68C48.83 148.89 47.07 149.31 46.5 149.28C45.93 149.25 46.14 150.13 46.08 148.5C46.03 146.87 46.19 141.67 46.18 139.5C46.18 137.33 46.17 136.36 46.06 135.5C45.95 134.64 45.61 134.53 45.5 134.37C45.39 134.2 45.72 134.4 45.38 134.5C45.05 134.6 43.98 134.78 43.5 134.96C43.02 135.13 42.83 135.41 42.5 135.56C42.17 135.7 41.83 135.66 41.5 135.82C41.17 135.98 40.83 136.34 40.5 136.52C40.17 136.69 39.83 136.69 39.5 136.88C39.17 137.07 38.83 137.45 38.5 137.63C38.17 137.82 38.02 137.69 37.5 138C36.98 138.31 36.24 139 35.41 139.5C34.57 140 33.32 140.47 32.5 140.98C31.68 141.48 31 142.17 30.5 142.51C30 142.86 30.48 142.22 29.5 143.05C28.52 143.89 25.74 146.43 24.65 147.5C23.55 148.57 23.36 148.83 22.94 149.5C22.52 150.17 22.28 151 22.12 151.5C21.96 152 22 152.17 21.99 152.5C21.98 152.83 21.95 153.17 22.07 153.5Z M58.69 162.5C59.8 162.92 60.17 162.79 60.5 162.65C60.83 162.52 60.83 162.22 61.5 162.09C62.17 161.95 63.83 161.97 64.5 161.87C65.17 161.77 65 161.6 65.5 161.49C66 161.37 67 161.26 67.5 161.16C68 161.05 68.25 160.97 68.5 160.86C68.75 160.75 68.81 160.59 68.98 160.5C69.15 160.41 69.08 160.4 69.5 160.31C69.92 160.22 70.96 160.12 71.5 159.98C72.04 159.85 72.1 159.66 72.77 159.5C73.44 159.34 74.88 159.19 75.5 159.03C76.12 158.86 76 158.67 76.5 158.5C77 158.33 78 158.2 78.5 158.03C79 157.85 78.83 157.64 79.5 157.45C80.17 157.26 81.9 157.03 82.5 156.87C83.1 156.72 82.79 156.61 83.12 156.5C83.46 156.39 83.94 156.4 84.5 156.19C85.06 155.98 85.83 155.47 86.5 155.24C87.17 155.01 88.07 154.95 88.5 154.83C88.93 154.71 88.75 154.61 89.09 154.5C89.42 154.39 90.1 154.29 90.5 154.17C90.9 154.06 91.27 153.91 91.5 153.8C91.73 153.69 91.52 153.63 91.86 153.5C92.19 153.37 93.06 153.21 93.5 153.04C93.94 152.87 94 152.66 94.5 152.49C95 152.31 96 152.18 96.5 151.99C97 151.8 97.17 151.49 97.5 151.34C97.83 151.2 98.22 151.26 98.5 151.12C98.78 150.98 99.05 150.77 99.19 150.5C99.33 150.23 99.46 149.87 99.35 149.5C99.23 149.13 98.81 148.54 98.5 148.25C98.19 147.96 97.88 147.87 97.5 147.74C97.12 147.62 96.56 147.6 96.23 147.5C95.89 147.4 95.79 147.25 95.5 147.16C95.21 147.07 94.83 147 94.5 146.96L93.5 146.9C93.17 146.94 92.73 147.09 92.5 147.19C92.27 147.29 92.29 147.4 92.13 147.5C91.96 147.6 91.77 147.6 91.5 147.78C91.23 147.95 91.17 148.23 90.5 148.56C89.83 148.9 88.5 149.29 87.5 149.78C86.5 150.27 85.16 151.16 84.49 151.5C83.83 151.84 83.83 151.68 83.5 151.85C83.17 152.01 82.83 152.33 82.5 152.5C82.16 152.67 81.83 152.68 81.5 152.85C81.17 153.03 81 153.32 80.5 153.54C80 153.76 78.9 154.02 78.5 154.18C78.1 154.33 78.42 154.34 78.08 154.5C77.75 154.66 76.83 154.99 76.5 155.16C76.17 155.33 76.46 155.35 76.12 155.5C75.79 155.65 74.94 155.86 74.5 156.03C74.06 156.21 73.83 156.44 73.5 156.58C73.17 156.71 72.83 156.69 72.5 156.85C72.17 157 72.05 157.23 71.5 157.51C70.95 157.78 69.87 158.27 69.2 158.5C68.54 158.73 67.96 158.74 67.5 158.91C67.04 159.08 66.96 159.3 66.46 159.5C65.96 159.7 64.99 159.9 64.5 160.12C64.01 160.34 64 160.66 63.5 160.81C63 160.96 62.3 160.74 61.5 161.02C60.7 161.3 59.03 162.19 58.69 162.5C58.36 162.81 59.2 162.87 59.5 162.9Z M119.46 56.5C119.87 59 119.97 59.18 120.26 59.5C120.55 59.82 121.13 60.18 121.5 60.42C121.87 60.66 122.17 60.85 122.5 60.95C122.83 61.04 123.26 60.9 123.5 60.99C123.74 61.08 123.84 60.91 123.96 61.5C124.07 62.09 124.1 63.72 124.19 64.5C124.28 65.28 124.43 65.52 124.5 66.18C124.57 66.85 124.6 67.11 124.6 68.5C124.6 69.89 124.62 73 124.51 74.5C124.41 76 124.09 76.5 123.98 77.5C123.87 78.5 123.93 79.41 123.85 80.5C123.77 81.59 123.65 83.06 123.5 84.06C123.35 85.06 123.1 85.59 122.93 86.5C122.77 87.41 122.65 88.83 122.51 89.5C122.38 90.17 122.13 90.16 122.13 90.5C122.12 90.84 122.27 91.39 122.5 91.56C122.73 91.74 123.21 91.74 123.5 91.56C123.79 91.39 124.09 90.99 124.25 90.5C124.42 90.01 124.36 89.31 124.5 88.64C124.64 87.98 124.92 87.34 125.09 86.5C125.25 85.66 125.35 84.29 125.5 83.62C125.65 82.95 125.81 83.24 125.97 82.5C126.14 81.76 126.37 79.82 126.5 79.15C126.63 78.48 126.69 78.78 126.76 78.5C126.84 78.22 126.85 78.83 126.94 77.5C127.04 76.17 127.25 72.5 127.33 70.5C127.41 68.5 127.46 67.5 127.42 65.5C127.38 63.5 127.14 60 127.08 58.5C127.03 57 127.13 57 127.09 56.5C127.06 56 127 55.83 126.87 55.5C126.74 55.17 126.69 54.94 126.29 54.5C125.9 54.06 124.97 53.16 124.5 52.87C124.03 52.57 123.83 52.75 123.5 52.73C123.17 52.71 122.83 52.71 122.5 52.76C122.17 52.81 121.83 52.82 121.5 53.02C121.17 53.22 120.76 53.69 120.5 53.94L119.95 54.5C119.77 54.93 119.49 55.83 119.46 56.5C119.42 57.17 119.61 58 119.74 58.5Z M125.46 91.5C126.94 92.14 127.65 91.13 128.11 90.5C128.57 89.87 128.78 89.17 129.27 88.5C129.77 87.83 130.54 87.17 131.05 86.5C131.56 85.83 131.43 85.61 132.34 84.5C133.25 83.39 135.05 81.31 136.5 79.81C137.95 78.31 139.89 76.55 141.03 75.5C142.17 74.45 142.58 74.06 143.32 73.5C144.07 72.94 144.97 72.39 145.5 72.11C146.03 71.84 146 71.66 146.5 71.84C147 72.03 148 72.98 148.5 73.22C149 73.46 149.17 73.3 149.5 73.29C149.83 73.28 150 73.46 150.5 73.17C151 72.89 152.05 72.03 152.5 71.58C152.95 71.13 153.05 70.85 153.18 70.5C153.3 70.15 153.25 69.83 153.26 69.5L153.2 68.5C153.15 68.17 153.08 67.76 152.97 67.5C152.85 67.24 152.74 67.19 152.5 66.94L151.5 66.04C151.17 65.85 150.83 65.87 150.5 65.84C150.17 65.81 149.83 65.82 149.5 65.85C149.17 65.88 149.17 65.66 148.5 66.02C147.83 66.38 146.83 67 145.5 67.99C144.17 68.99 142.09 70.56 140.5 71.98C138.91 73.4 136.98 75.41 135.99 76.5C134.99 77.59 135.35 77.5 134.53 78.5C133.72 79.5 131.77 81.67 131.11 82.5C130.45 83.33 130.94 83 130.55 83.5C130.17 84 129.21 85 128.81 85.5C128.4 86 128.3 86.17 128.11 86.5C127.92 86.83 127.9 87.17 127.69 87.5C127.48 87.83 127.05 88.2 126.86 88.5C126.66 88.8 126.6 89.11 126.5 89.28C126.4 89.44 126.4 89.3 126.28 89.5L125.76 90.5C125.62 90.83 125.33 91.2 125.46 91.5C125.58 91.8 126.06 92.48 126.5 92.31Z"/>
</svg>
