<?xml version="1.0" encoding="UTF-8"?>
<svg xmlns="http://www.w3.org/2000/svg" width="205" height="228" viewBox="0 0 205 228" version="1.1" shape-rendering="geometricPrecision">
  <g transform="matrix(1.2 0 0 1.2 -20.5 -22.8)">
    <path fill="none" stroke="#ffffff" stroke-width="8" stroke-linejoin="round" stroke-linecap="round" d="M 158.575 118 C 159.538 118.751 160.908 119.093 162 119.657 C 162.729 120.033 163.28 120.82 164 121.217 C 168.202 123.538 172.28 127.874 174.686 132 C 175.103 132.715 175.886 133.266 176.264 134 C 179.969 141.193 183.016 148.737 183.34 157 C 183.497 160.999 182.982 165.183 181.858 169 C 181.566 169.988 181.527 171.015 181.238 172 C 180.829 173.392 180.047 174.656 179.546 176 C 175.808 186.018 169.158 193.083 160 198.549 C 159.636 198.767 159.38 199.149 159 199.338 C 158.051 199.81 156.974 200.099 156 200.513 C 154.663 201.081 153.406 201.881 152 202.298 C 149.806 202.948 152.193 202.077 150 202.692 C 148.025 203.245 146.051 204.101 144 204.381 C 137.127 205.319 129.92 204.763 123 204.744 C 109.334 204.708 95.666 204.724 82 204.755 L 63 204.749 C 59.823 204.744 56.033 205.333 53 204.191 C 49.636 202.924 46.646 199.416 45.677 196 C 44.987 193.57 45.443 190.504 45.444 188 C 45.448 183.001 45.319 177.997 45.366 173 C 45.391 170.332 45.146 167.654 45.226 165 C 45.248 164.284 45.676 161.985 45 161.474 C 43.515 160.352 39.782 162.243 38 162.457 C 33.287 163.022 28.728 163.486 24 162.792 C 23.04 162.651 21.923 162.632 21 162.32 C 20.607 162.187 20.38 161.828 20 161.676 C 16.869 160.426 14.779 159.691 13.898 156 C 13.312 153.546 15.6 150.555 17 148.735 C 20.299 144.447 25.357 141.887 30 139.402 L 31 138.592 C 31.954 138.068 33.013 137.749 34 137.319 C 35.014 136.876 35.951 136.104 37 135.705 C 38.407 135.169 39.64 134.465 41 133.86 C 42.094 133.373 44.214 133.317 44.794 132 C 45.139 131.218 44.741 127.075 44.696 126 C 44.504 121.348 44.581 116.656 44.564 112 C 44.497 94.334 44.328 76.665 44.335 59 L 44.259 48 C 44.247 43.942 43.918 39.754 45.762 36 C 46.288 34.93 47.482 33.839 48.326 33 C 52.532 28.819 57.5 29.237 63 29.244 L 89 29.261 L 108 29.275 L 129 29.293 C 132.979 29.295 137.045 29.104 141 29.647 C 142.051 29.791 142.96 30.239 144 30.429 C 151.963 31.883 158.582 35.216 165 40.086 C 168.011 42.371 170.356 45.037 172.654 48 C 173.163 48.656 173.848 49.264 174.244 50 C 174.798 51.031 175.679 51.966 176.19 53 C 177.793 56.246 179.213 59.595 180.375 63 C 181.049 64.973 181.336 66.949 181.647 69 C 181.802 70.024 182.172 70.978 182.323 72 C 183.117 77.36 182.571 84.743 181.2 90 C 180.947 90.972 180.608 92.07 180.249 93 C 178.999 96.247 181.522 88.729 179.626 94 C 179.154 95.311 178.865 96.719 178.271 98 C 178.094 98.38 177.716 98.635 177.511 99 C 175.723 102.168 174.13 105.316 171.608 108 C 169.367 110.386 166.848 112.829 164 114.498 C 162.721 115.247 161.387 116.124 160 116.593 C 159.636 116.716 159.067 116.644 158.922 117 L 158.575 118 Z
M 89.447 107 C 88.66 107.694 83.669 108.007 82 108.609 C 79.035 109.677 82.603 108.549 81 109.22 C 79.684 109.771 78.287 110.108 77 110.742 C 76.304 111.085 75.673 111.798 75 112.207 C 71.741 114.187 69.177 117.583 67.578 121 C 67.466 121.239 66.66 122.698 66.567 123 C 65.589 126.172 66.589 128.657 68.623 131 C 69.156 131.613 70.115 132.212 70.431 133 C 70.794 133.909 70.684 135.047 70.941 136 C 71.226 137.057 72.035 137.979 72.418 139 C 73.27 141.27 74.495 143.345 77 144.204 C 80.224 145.31 83.239 143.604 86 142.192 C 87.351 141.502 88.573 140.079 89.625 139 C 91 137.59 92.575 136.369 93.989 135 C 95.668 133.374 97.236 131.634 98.909 130 C 100.051 128.885 101.527 127.46 103 126.767 C 103.593 126.487 104.072 126.546 104.454 126 C 105.702 124.211 106.664 121.961 107.598 120 C 108.1 118.948 108.861 118.016 109.412 117 C 110.484 115.021 111.517 113.013 112.511 111 C 113.786 108.419 117.071 103.609 117.524 101 C 118.028 98.093 117.21 93.927 116.713 91 C 116.545 90.01 116.545 88.984 116.367 88 C 116.059 86.296 115.254 84.638 114.749 83 C 114.269 81.44 114.799 82.562 114.351 81 C 113.948 79.595 113.107 78.341 112.596 77 C 109.752 69.519 105.4 62.635 100 56.704 C 95.967 52.274 91.311 47.972 86 45.17 C 85.311 44.806 84.696 44.143 84 43.809 C 82.436 43.058 79.712 41.9 78 42.006 C 73.868 42.263 72.787 45.543 72.367 49 C 72.245 50.001 71.937 50.993 71.876 52 C 71.728 54.474 72.719 60.655 73.584 63 C 73.963 64.028 74.77 64.889 75.048 66 C 75.457 67.639 74.294 68.544 73.729 70 C 72.783 72.438 72.521 75.406 72.578 78 C 72.622 79.968 72.931 82.175 73.73 84 C 74.035 84.694 74.662 85.272 74.983 86 C 75.341 86.811 74.438 89.803 74.485 91 C 74.617 94.389 75.921 97.541 78.303 100 C 80.267 102.028 82.626 103.805 85.17 105 C 86.609 105.676 88.2 105.944 89.447 107 Z
M 130.907 117 C 131.458 116.524 133.296 116.882 134 116.841 C 136.563 116.692 138.685 116.065 141 115.031 C 143.742 113.805 146.13 112.046 148 109.658 C 148.449 109.085 148.53 108.311 149 107.813 C 149.919 106.84 151.006 106.306 152 105.426 C 154.616 103.111 157.006 100.174 158.458 97 C 158.9 96.035 159.189 94.943 159.649 94 C 160.264 92.741 162.129 91.915 163 90.816 C 164.424 89.02 166.33 87.044 167.371 85 C 169.156 81.494 166.967 85.26 168 83.647 C 168.706 82.544 171.616 76.809 170 75.84 C 164.727 72.678 151.976 77.835 147 80.582 C 146.627 80.789 146.367 81.163 146 81.381 C 139.149 85.445 133.175 90.339 127.586 96 C 126.378 97.224 124.85 98.56 123.897 100 C 123.03 101.309 122.967 102.554 122.47 104 C 122.122 105.013 121.628 105.985 121.271 107 C 120.89 108.085 120.214 109.005 119.721 110 C 119.242 110.967 118.938 112.028 118.486 113 C 117.262 115.635 115.637 118.306 114 120.727 L 111.073 125 C 110.285 126.121 108.08 127.826 107.757 129 C 107.492 129.965 107.496 131.023 107.253 132 C 106.909 133.381 106.318 134.691 105.837 136 C 105.245 137.613 105.033 139.384 104.453 141 C 103.985 142.301 102.389 144.554 102.597 146 C 102.794 147.364 106.138 146.772 107 146.601 C 108.073 146.387 108.108 145.966 109 145.599 C 109.637 145.338 110.342 145.284 111 145.08 C 113.018 144.455 114.993 143.447 117 142.818 C 118.059 142.486 119.025 142.39 120 141.818 C 121.596 140.882 121.804 139.772 123 138.861 C 123.886 138.186 125.271 137.689 126 136.863 C 129.441 132.962 132.587 128.4 132.621 123 C 132.627 122.033 132.597 120.92 132.267 120 C 131.867 118.888 131.06 118.253 130.907 117 Z
M 72.053 146 C 71.289 144.655 68.688 141.572 67 141.41 C 66.097 141.323 61.917 143.553 61 143.983 C 57.784 145.492 54.358 146.427 51 147.538 C 49.47 148.044 47.679 149.254 46 149.254 C 44.831 149.254 45.245 146.597 45.264 146 C 45.357 143.028 45.377 139.97 45.241 137 C 45.225 136.664 45.408 134.856 45 134.683 C 43.37 133.988 39.5 136.651 38 137.468 C 33.347 139.999 28.803 142.829 25 146.587 C 23.459 148.111 21.197 150.598 22.112 153 C 23.589 156.878 31.641 156.888 35 156.631 C 38.332 156.376 41.737 156.163 45 155.405 C 45.887 155.199 46.158 154.896 47 154.649 C 48.28 154.273 49.687 153.953 51 153.672 C 51.661 153.53 52.349 153.517 53 153.334 C 56.418 152.379 59.638 150.737 63 149.611 C 64.332 149.165 65.701 148.802 67 148.241 C 71.819 146.162 58.915 151.334 68 147.582 C 69.124 147.118 71.175 146.866 72.053 146 Z
M 125.463 91 C 125.642 91.142 125.771 91.427 126 91.427 C 126.35 91.427 128.112 88.446 128.441 88 C 131.313 84.103 134.447 80.225 138 76.924 C 139.26 75.754 144.398 70.778 146 70.778 C 147.225 70.778 147.228 73.27 150 72.35 C 151.67 71.796 152.822 69.641 152.41 68 C 151.078 62.706 145.106 67.811 143 69.473 C 138.104 73.336 134.185 78.096 130.416 83 C 128.759 85.156 125.787 88.292 125.463 91 Z
M 64.237 160 C 64.492 160.17 64.704 160.433 65 160.511 C 65.972 160.765 70.808 158.983 72 158.684 C 73 158.433 74.007 158.372 75 158.073 C 76.354 157.665 77.651 157.038 79 156.622 C 80.621 156.122 82.403 155.954 84 155.374 C 86.951 154.301 83.087 155.522 85 154.742 C 86.596 154.091 88.376 153.888 90 153.342 C 92.216 152.597 89.606 153.321 91 152.781 C 93.316 151.883 95.722 151.23 98 150.251 C 98.411 150.074 98.587 149.277 98.543 149 C 98.32 147.608 94.226 146.72 93 146.798 C 92.572 146.825 91.274 147.454 91 147.599 C 90.19 148.03 90.82 147.972 90 148.379 C 89.032 148.86 87.981 149.197 87 149.64 C 85.967 150.106 85.032 150.887 84 151.371 L 81 152.673 C 79.651 153.277 81.45 152.713 80 153.38 C 77.372 154.59 74.69 155.613 72 156.691 C 70.98 157.099 70.047 157.927 69 158.307 C 67.38 158.896 65.815 159.28 64.237 160 Z
M 123 90.582 C 123.799 89.48 124.31 84.596 124.665 83 C 126.235 75.953 126.926 69.262 126.529 62 C 126.409 59.813 126.53 55.863 125.47 54 C 123.476 50.495 117.92 53.417 119.527 58 C 120.309 60.23 123.016 59.267 123.868 61 C 124.656 62.603 124.352 70.825 124.347 73 C 124.343 74.7 123.996 76.318 123.835 78 C 123.614 80.306 123.656 82.725 123.195 85 C 123.013 85.896 121.953 89.33 122.212 90 C 122.33 90.305 122.737 90.388 123 90.582 Z
M 61.218 161 C 63.667 161.241 63.59 160.75 61.218 161 Z"/>
<path fill="#ffffff" d="M 89.447 107 C 88.66 107.694 83.669 108.007 82 108.609 C 79.035 109.677 82.603 108.549 81 109.22 C 79.684 109.771 78.287 110.108 77 110.742 C 76.304 111.085 75.673 111.798 75 112.207 C 71.741 114.187 69.177 117.583 67.578 121 C 67.466 121.239 66.66 122.698 66.567 123 C 65.589 126.172 66.589 128.657 68.623 131 C 69.156 131.613 70.115 132.212 70.431 133 C 70.794 133.909 70.684 135.047 70.941 136 C 71.226 137.057 72.035 137.979 72.418 139 C 73.27 141.27 74.495 143.345 77 144.204 C 80.224 145.31 83.239 143.604 86 142.192 C 87.351 141.502 88.573 140.079 89.625 139 C 91 137.59 92.575 136.369 93.989 135 C 95.668 133.374 97.236 131.634 98.909 130 C 100.051 128.885 101.527 127.46 103 126.767 C 103.593 126.487 104.072 126.546 104.454 126 C 105.702 124.211 106.664 121.961 107.598 120 C 108.1 118.948 108.861 118.016 109.412 117 C 110.484 115.021 111.517 113.013 112.511 111 C 113.786 108.419 117.071 103.609 117.524 101 C 118.028 98.093 117.21 93.927 116.713 91 C 116.545 90.01 116.545 88.984 116.367 88 C 116.059 86.296 115.254 84.638 114.749 83 C 114.269 81.44 114.799 82.562 114.351 81 C 113.948 79.595 113.107 78.341 112.596 77 C 109.752 69.519 105.4 62.635 100 56.704 C 95.967 52.274 91.311 47.972 86 45.17 C 85.311 44.806 84.696 44.143 84 43.809 C 82.436 43.058 79.712 41.9 78 42.006 C 73.868 42.263 72.787 45.543 72.367 49 C 72.245 50.001 71.937 50.993 71.876 52 C 71.728 54.474 72.719 60.655 73.584 63 C 73.963 64.028 74.77 64.889 75.048 66 C 75.457 67.639 74.294 68.544 73.729 70 C 72.783 72.438 72.521 75.406 72.578 78 C 72.622 79.968 72.931 82.175 73.73 84 C 74.035 84.694 74.662 85.272 74.983 86 C 75.341 86.811 74.438 89.803 74.485 91 C 74.617 94.389 75.921 97.541 78.303 100 C 80.267 102.028 82.626 103.805 85.17 105 C 86.609 105.676 88.2 105.944 89.447 107 Z
M 130.907 117 C 131.458 116.524 133.296 116.882 134 116.841 C 136.563 116.692 138.685 116.065 141 115.031 C 143.742 113.805 146.13 112.046 148 109.658 C 148.449 109.085 148.53 108.311 149 107.813 C 149.919 106.84 151.006 106.306 152 105.426 C 154.616 103.111 157.006 100.174 158.458 97 C 158.9 96.035 159.189 94.943 159.649 94 C 160.264 92.741 162.129 91.915 163 90.816 C 164.424 89.02 166.33 87.044 167.371 85 C 169.156 81.494 166.967 85.26 168 83.647 C 168.706 82.544 171.616 76.809 170 75.84 C 164.727 72.678 151.976 77.835 147 80.582 C 146.627 80.789 146.367 81.163 146 81.381 C 139.149 85.445 133.175 90.339 127.586 96 C 126.378 97.224 124.85 98.56 123.897 100 C 123.03 101.309 122.967 102.554 122.47 104 C 122.122 105.013 121.628 105.985 121.271 107 C 120.89 108.085 120.214 109.005 119.721 110 C 119.242 110.967 118.938 112.028 118.486 113 C 117.262 115.635 115.637 118.306 114 120.727 L 111.073 125 C 110.285 126.121 108.08 127.826 107.757 129 C 107.492 129.965 107.496 131.023 107.253 132 C 106.909 133.381 106.318 134.691 105.837 136 C 105.245 137.613 105.033 139.384 104.453 141 C 103.985 142.301 102.389 144.554 102.597 146 C 102.794 147.364 106.138 146.772 107 146.601 C 108.073 146.387 108.108 145.966 109 145.599 C 109.637 145.338 110.342 145.284 111 145.08 C 113.018 144.455 114.993 143.447 117 142.818 C 118.059 142.486 119.025 142.39 120 141.818 C 121.596 140.882 121.804 139.772 123 138.861 C 123.886 138.186 125.271 137.689 126 136.863 C 129.441 132.962 132.587 128.4 132.621 123 C 132.627 122.033 132.597 120.92 132.267 120 C 131.867 118.888 131.06 118.253 130.907 117 Z
M 72.053 146 C 71.289 144.655 68.688 141.572 67 141.41 C 66.097 141.323 61.917 143.553 61 143.983 C 57.784 145.492 54.358 146.427 51 147.538 C 49.47 148.044 47.679 149.254 46 149.254 C 44.831 149.254 45.245 146.597 45.264 146 C 45.357 143.028 45.377 139.97 45.241 137 C 45.225 136.664 45.408 134.856 45 134.683 C 43.37 133.988 39.5 136.651 38 137.468 C 33.347 139.999 28.803 142.829 25 146.587 C 23.459 148.111 21.197 150.598 22.112 153 C 23.589 156.878 31.641 156.888 35 156.631 C 38.332 156.376 41.737 156.163 45 155.405 C 45.887 155.199 46.158 154.896 47 154.649 C 48.28 154.273 49.687 153.953 51 153.672 C 51.661 153.53 52.349 153.517 53 153.334 C 56.418 152.379 59.638 150.737 63 149.611 C 64.332 149.165 65.701 148.802 67 148.241 C 71.819 146.162 58.915 151.334 68 147.582 C 69.124 147.118 71.175 146.866 72.053 146 Z
M 125.463 91 C 125.642 91.142 125.771 91.427 126 91.427 C 126.35 91.427 128.112 88.446 128.441 88 C 131.313 84.103 134.447 80.225 138 76.924 C 139.26 75.754 144.398 70.778 146 70.778 C 147.225 70.778 147.228 73.27 150 72.35 C 151.67 71.796 152.822 69.641 152.41 68 C 151.078 62.706 145.106 67.811 143 69.473 C 138.104 73.336 134.185 78.096 130.416 83 C 128.759 85.156 125.787 88.292 125.463 91 Z
M 64.237 160 C 64.492 160.17 64.704 160.433 65 160.511 C 65.972 160.765 70.808 158.983 72 158.684 C 73 158.433 74.007 158.372 75 158.073 C 76.354 157.665 77.651 157.038 79 156.622 C 80.621 156.122 82.403 155.954 84 155.374 C 86.951 154.301 83.087 155.522 85 154.742 C 86.596 154.091 88.376 153.888 90 153.342 C 92.216 152.597 89.606 153.321 91 152.781 C 93.316 151.883 95.722 151.23 98 150.251 C 98.411 150.074 98.587 149.277 98.543 149 C 98.32 147.608 94.226 146.72 93 146.798 C 92.572 146.825 91.274 147.454 91 147.599 C 90.19 148.03 90.82 147.972 90 148.379 C 89.032 148.86 87.981 149.197 87 149.64 C 85.967 150.106 85.032 150.887 84 151.371 L 81 152.673 C 79.651 153.277 81.45 152.713 80 153.38 C 77.372 154.59 74.69 155.613 72 156.691 C 70.98 157.099 70.047 157.927 69 158.307 C 67.38 158.896 65.815 159.28 64.237 160 Z
M 123 90.582 C 123.799 89.48 124.31 84.596 124.665 83 C 126.235 75.953 126.926 69.262 126.529 62 C 126.409 59.813 126.53 55.863 125.47 54 C 123.476 50.495 117.92 53.417 119.527 58 C 120.309 60.23 123.016 59.267 123.868 61 C 124.656 62.603 124.352 70.825 124.347 73 C 124.343 74.7 123.996 76.318 123.835 78 C 123.614 80.306 123.656 82.725 123.195 85 C 123.013 85.896 121.953 89.33 122.212 90 C 122.33 90.305 122.737 90.388 123 90.582 Z
M 61.218 161 C 63.667 161.241 63.59 160.75 61.218 161 Z"/>
  <path fill="#043971" fill-rule="evenodd" d="M 158.575 118 C 159.538 118.751 160.908 119.093 162 119.657 C 162.729 120.033 163.28 120.82 164 121.217 C 168.202 123.538 172.28 127.874 174.686 132 C 175.103 132.715 175.886 133.266 176.264 134 C 179.969 141.193 183.016 148.737 183.34 157 C 183.497 160.999 182.982 165.183 181.858 169 C 181.566 169.988 181.527 171.015 181.238 172 C 180.829 173.392 180.047 174.656 179.546 176 C 175.808 186.018 169.158 193.083 160 198.549 C 159.636 198.767 159.38 199.149 159 199.338 C 158.051 199.81 156.974 200.099 156 200.513 C 154.663 201.081 153.406 201.881 152 202.298 C 149.806 202.948 152.193 202.077 150 202.692 C 148.025 203.245 146.051 204.101 144 204.381 C 137.127 205.319 129.92 204.763 123 204.744 C 109.334 204.708 95.666 204.724 82 204.755 L 63 204.749 C 59.823 204.744 56.033 205.333 53 204.191 C 49.636 202.924 46.646 199.416 45.677 196 C 44.987 193.57 45.443 190.504 45.444 188 C 45.448 183.001 45.319 177.997 45.366 173 C 45.391 170.332 45.146 167.654 45.226 165 C 45.248 164.284 45.676 161.985 45 161.474 C 43.515 160.352 39.782 162.243 38 162.457 C 33.287 163.022 28.728 163.486 24 162.792 C 23.04 162.651 21.923 162.632 21 162.32 C 20.607 162.187 20.38 161.828 20 161.676 C 16.869 160.426 14.779 159.691 13.898 156 C 13.312 153.546 15.6 150.555 17 148.735 C 20.299 144.447 25.357 141.887 30 139.402 L 31 138.592 C 31.954 138.068 33.013 137.749 34 137.319 C 35.014 136.876 35.951 136.104 37 135.705 C 38.407 135.169 39.64 134.465 41 133.86 C 42.094 133.373 44.214 133.317 44.794 132 C 45.139 131.218 44.741 127.075 44.696 126 C 44.504 121.348 44.581 116.656 44.564 112 C 44.497 94.334 44.328 76.665 44.335 59 L 44.259 48 C 44.247 43.942 43.918 39.754 45.762 36 C 46.288 34.93 47.482 33.839 48.326 33 C 52.532 28.819 57.5 29.237 63 29.244 L 89 29.261 L 108 29.275 L 129 29.293 C 132.979 29.295 137.045 29.104 141 29.647 C 142.051 29.791 142.96 30.239 144 30.429 C 151.963 31.883 158.582 35.216 165 40.086 C 168.011 42.371 170.356 45.037 172.654 48 C 173.163 48.656 173.848 49.264 174.244 50 C 174.798 51.031 175.679 51.966 176.19 53 C 177.793 56.246 179.213 59.595 180.375 63 C 181.049 64.973 181.336 66.949 181.647 69 C 181.802 70.024 182.172 70.978 182.323 72 C 183.117 77.36 182.571 84.743 181.2 90 C 180.947 90.972 180.608 92.07 180.249 93 C 178.999 96.247 181.522 88.729 179.626 94 C 179.154 95.311 178.865 96.719 178.271 98 C 178.094 98.38 177.716 98.635 177.511 99 C 175.723 102.168 174.13 105.316 171.608 108 C 169.367 110.386 166.848 112.829 164 114.498 C 162.721 115.247 161.387 116.124 160 116.593 C 159.636 116.716 159.067 116.644 158.922 117 L 158.575 118 Z
M 89.447 107 C 88.66 107.694 83.669 108.007 82 108.609 C 79.035 109.677 82.603 108.549 81 109.22 C 79.684 109.771 78.287 110.108 77 110.742 C 76.304 111.085 75.673 111.798 75 112.207 C 71.741 114.187 69.177 117.583 67.578 121 C 67.466 121.239 66.66 122.698 66.567 123 C 65.589 126.172 66.589 128.657 68.623 131 C 69.156 131.613 70.115 132.212 70.431 133 C 70.794 133.909 70.684 135.047 70.941 136 C 71.226 137.057 72.035 137.979 72.418 139 C 73.27 141.27 74.495 143.345 77 144.204 C 80.224 145.31 83.239 143.604 86 142.192 C 87.351 141.502 88.573 140.079 89.625 139 C 91 137.59 92.575 136.369 93.989 135 C 95.668 133.374 97.236 131.634 98.909 130 C 100.051 128.885 101.527 127.46 103 126.767 C 103.593 126.487 104.072 126.546 104.454 126 C 105.702 124.211 106.664 121.961 107.598 120 C 108.1 118.948 108.861 118.016 109.412 117 C 110.484 115.021 111.517 113.013 112.511 111 C 113.786 108.419 117.071 103.609 117.524 101 C 118.028 98.093 117.21 93.927 116.713 91 C 116.545 90.01 116.545 88.984 116.367 88 C 116.059 86.296 115.254 84.638 114.749 83 C 114.269 81.44 114.799 82.562 114.351 81 C 113.948 79.595 113.107 78.341 112.596 77 C 109.752 69.519 105.4 62.635 100 56.704 C 95.967 52.274 91.311 47.972 86 45.17 C 85.311 44.806 84.696 44.143 84 43.809 C 82.436 43.058 79.712 41.9 78 42.006 C 73.868 42.263 72.787 45.543 72.367 49 C 72.245 50.001 71.937 50.993 71.876 52 C 71.728 54.474 72.719 60.655 73.584 63 C 73.963 64.028 74.77 64.889 75.048 66 C 75.457 67.639 74.294 68.544 73.729 70 C 72.783 72.438 72.521 75.406 72.578 78 C 72.622 79.968 72.931 82.175 73.73 84 C 74.035 84.694 74.662 85.272 74.983 86 C 75.341 86.811 74.438 89.803 74.485 91 C 74.617 94.389 75.921 97.541 78.303 100 C 80.267 102.028 82.626 103.805 85.17 105 C 86.609 105.676 88.2 105.944 89.447 107 Z
M 130.907 117 C 131.458 116.524 133.296 116.882 134 116.841 C 136.563 116.692 138.685 116.065 141 115.031 C 143.742 113.805 146.13 112.046 148 109.658 C 148.449 109.085 148.53 108.311 149 107.813 C 149.919 106.84 151.006 106.306 152 105.426 C 154.616 103.111 157.006 100.174 158.458 97 C 158.9 96.035 159.189 94.943 159.649 94 C 160.264 92.741 162.129 91.915 163 90.816 C 164.424 89.02 166.33 87.044 167.371 85 C 169.156 81.494 166.967 85.26 168 83.647 C 168.706 82.544 171.616 76.809 170 75.84 C 164.727 72.678 151.976 77.835 147 80.582 C 146.627 80.789 146.367 81.163 146 81.381 C 139.149 85.445 133.175 90.339 127.586 96 C 126.378 97.224 124.85 98.56 123.897 100 C 123.03 101.309 122.967 102.554 122.47 104 C 122.122 105.013 121.628 105.985 121.271 107 C 120.89 108.085 120.214 109.005 119.721 110 C 119.242 110.967 118.938 112.028 118.486 113 C 117.262 115.635 115.637 118.306 114 120.727 L 111.073 125 C 110.285 126.121 108.08 127.826 107.757 129 C 107.492 129.965 107.496 131.023 107.253 132 C 106.909 133.381 106.318 134.691 105.837 136 C 105.245 137.613 105.033 139.384 104.453 141 C 103.985 142.301 102.389 144.554 102.597 146 C 102.794 147.364 106.138 146.772 107 146.601 C 108.073 146.387 108.108 145.966 109 145.599 C 109.637 145.338 110.342 145.284 111 145.08 C 113.018 144.455 114.993 143.447 117 142.818 C 118.059 142.486 119.025 142.39 120 141.818 C 121.596 140.882 121.804 139.772 123 138.861 C 123.886 138.186 125.271 137.689 126 136.863 C 129.441 132.962 132.587 128.4 132.621 123 C 132.627 122.033 132.597 120.92 132.267 120 C 131.867 118.888 131.06 118.253 130.907 117 Z
M 72.053 146 C 71.289 144.655 68.688 141.572 67 141.41 C 66.097 141.323 61.917 143.553 61 143.983 C 57.784 145.492 54.358 146.427 51 147.538 C 49.47 148.044 47.679 149.254 46 149.254 C 44.831 149.254 45.245 146.597 45.264 146 C 45.357 143.028 45.377 139.97 45.241 137 C 45.225 136.664 45.408 134.856 45 134.683 C 43.37 133.988 39.5 136.651 38 137.468 C 33.347 139.999 28.803 142.829 25 146.587 C 23.459 148.111 21.197 150.598 22.112 153 C 23.589 156.878 31.641 156.888 35 156.631 C 38.332 156.376 41.737 156.163 45 155.405 C 45.887 155.199 46.158 154.896 47 154.649 C 48.28 154.273 49.687 153.953 51 153.672 C 51.661 153.53 52.349 153.517 53 153.334 C 56.418 152.379 59.638 150.737 63 149.611 C 64.332 149.165 65.701 148.802 67 148.241 C 71.819 146.162 58.915 151.334 68 147.582 C 69.124 147.118 71.175 146.866 72.053 146 Z
M 125.463 91 C 125.642 91.142 125.771 91.427 126 91.427 C 126.35 91.427 128.112 88.446 128.441 88 C 131.313 84.103 134.447 80.225 138 76.924 C 139.26 75.754 144.398 70.778 146 70.778 C 147.225 70.778 147.228 73.27 150 72.35 C 151.67 71.796 152.822 69.641 152.41 68 C 151.078 62.706 145.106 67.811 143 69.473 C 138.104 73.336 134.185 78.096 130.416 83 C 128.759 85.156 125.787 88.292 125.463 91 Z
M 64.237 160 C 64.492 160.17 64.704 160.433 65 160.511 C 65.972 160.765 70.808 158.983 72 158.684 C 73 158.433 74.007 158.372 75 158.073 C 76.354 157.665 77.651 157.038 79 156.622 C 80.621 156.122 82.403 155.954 84 155.374 C 86.951 154.301 83.087 155.522 85 154.742 C 86.596 154.091 88.376 153.888 90 153.342 C 92.216 152.597 89.606 153.321 91 152.781 C 93.316 151.883 95.722 151.23 98 150.251 C 98.411 150.074 98.587 149.277 98.543 149 C 98.32 147.608 94.226 146.72 93 146.798 C 92.572 146.825 91.274 147.454 91 147.599 C 90.19 148.03 90.82 147.972 90 148.379 C 89.032 148.86 87.981 149.197 87 149.64 C 85.967 150.106 85.032 150.887 84 151.371 L 81 152.673 C 79.651 153.277 81.45 152.713 80 153.38 C 77.372 154.59 74.69 155.613 72 156.691 C 70.98 157.099 70.047 157.927 69 158.307 C 67.38 158.896 65.815 159.28 64.237 160 Z
M 123 90.582 C 123.799 89.48 124.31 84.596 124.665 83 C 126.235 75.953 126.926 69.262 126.529 62 C 126.409 59.813 126.53 55.863 125.47 54 C 123.476 50.495 117.92 53.417 119.527 58 C 120.309 60.23 123.016 59.267 123.868 61 C 124.656 62.603 124.352 70.825 124.347 73 C 124.343 74.7 123.996 76.318 123.835 78 C 123.614 80.306 123.656 82.725 123.195 85 C 123.013 85.896 121.953 89.33 122.212 90 C 122.33 90.305 122.737 90.388 123 90.582 Z
M 61.218 161 C 63.667 161.241 63.59 160.75 61.218 161 Z"/>
  </g>
</svg>
